<?xml version="1.0" encoding="utf-8"?>
<!-- Generator: Adobe Illustrator 16.0.4, SVG Export Plug-In . SVG Version: 6.00 Build 0)  -->
<!DOCTYPE svg PUBLIC "-//W3C//DTD SVG 1.1//EN" "http://www.w3.org/Graphics/SVG/1.1/DTD/svg11.dtd">
<svg version="1.1" id="Layer_1" xmlns="http://www.w3.org/2000/svg" xmlns:xlink="http://www.w3.org/1999/xlink" x="0px" y="0px"
	 width="442px" height="490px" viewBox="0 0 442 490" enable-background="new 0 0 442 490" xml:space="preserve">
<g>
	<path fill="#FFFFFF" d="M303.727,148.963c2.77,3.064,5.353,6.234,7.715,9.524c18.791-22.155,37.588-44.305,56.371-66.467
		c6.865-8.101,13.516-16.406,19.936-24.865c8.396-11.064,14.69-23.23,17.193-37.324c-1.192,1.402-2.385,2.803-3.574,4.204
		C368.818,72.345,336.271,110.653,303.727,148.963z"/>
	<path fill="#FFFFFF" d="M159.612,318.594c-5.38,6.333-5.386,6.404-0.09,13.081c0.697,0.877,1.516,1.664,2.578,2.816
		c1.39-1.635,2.578-3.029,3.762-4.426c3.435-4.049,6.87-8.096,10.305-12.144c-3.732-1.808-7.355-3.825-10.851-6.043
		C163.415,314.117,161.513,316.355,159.612,318.594z"/>
	<path fill="#FFFFFF" d="M157.925,315.814c1.597-1.881,3.194-3.761,4.791-5.641c-3.028-2.045-5.953-4.244-8.763-6.587
		c-3.092,3.641-6.184,7.281-9.276,10.922c-0.813,0.958-1.461,2.059-2.189,3.097C151.1,323.255,151.667,323.183,157.925,315.814z"/>
	<path fill="#FFFFFF" d="M301.604,146.684c32.121-37.812,64.242-75.624,96.363-113.435c1.197-1.41,2.397-2.82,3.597-4.23
		c-0.146-0.255-0.294-0.511-0.438-0.768c-0.869,0.362-1.757,0.687-2.605,1.093c-14.076,6.758-25.687,16.744-35.683,28.481
		c-23.062,27.081-46.092,54.187-69.13,81.287c0.953,0.83,1.898,1.674,2.832,2.542C298.297,143.291,299.973,144.975,301.604,146.684z
		"/>
	<path fill="#FFFFFF" d="M129.649,350.218c-18.188-1.688-24.904-11.048-27.135-37.573c-4.813,0.202-9.625,0.404-14.985,0.631
		c3.428,11.499,8.592,21.566,15.269,30.911c3.737,5.231,7.712,9.828,14.184,12.281c3.644,1.382,6.42,5.138,9.492,7.925
		c3.532,3.208,6.482,7.399,10.534,9.61c7.182,3.923,14.918,6.899,22.592,9.829c4.595,1.755,9.51,2.669,14.734,4.084
		c0.03-5.654,0.057-10.304,0.082-14.989C150.97,374.805,133.512,368.32,129.649,350.218z"/>
	<path fill="#FFFFFF" d="M139.108,320.833c-5.261,8.111-10.731,16.546-16.438,25.341c3.148,0.311,6.545,0.642,9.39,0.921
		c1.644,4.518,3.13,8.601,4.395,12.072c8.077-7.494,15.594-14.468,23.004-21.343C155.089,328.796,149.393,322.407,139.108,320.833z"
		/>
	<path fill="#FFFFFF" d="M39.051,460.836c4.06,1.905,7.38,3.938,10.985,4.942c1.595,0.443,4.832-0.647,5.502-1.969
		c3.583-7.065,6.59-14.424,9.845-21.788c-3.398-1.429-5.518-2.318-7.619-3.2C51.706,445.948,45.835,452.854,39.051,460.836z"/>
	<path fill="#FFFFFF" d="M55.869,437.13c-1.561-2.407-2.821-4.353-4.362-6.729c-4.259,3.154-8.473,6.127-12.506,9.326
		c-2.086,1.655-4.149,3.505-5.691,5.648c-2.9,4.029,0.006,7.031,2.676,9.522c0.854,0.797,3.831,0.8,4.567,0.001
		C45.845,449.141,50.81,443.082,55.869,437.13z"/>
	<path fill="#FFFFFF" d="M117.363,361.188c-5.883-3.078-6.587-2.815-10.75,3.676c4.282,1.966,8.162,3.917,12.179,5.527
		c2.272,0.913,4.771,1.267,7.167,1.871c-1.226-2.544-2.159-5.297-3.779-7.56C121.079,363.161,119.122,362.105,117.363,361.188z"/>
	<path fill="#FFFFFF" d="M101.276,371.119c5.434,2.544,10.505,4.729,15.388,7.274c2.899,1.514,4.253,0.697,5.101-2.09
		C111.366,369.525,104.703,367.586,101.276,371.119z"/>
	<path fill="#FFFFFF" d="M75.846,402.508c5.041,2.088,9.922,4.274,14.942,6.07c1.2,0.43,2.863-0.441,4.313-0.713
		c0.021-0.733,0.042-1.466,0.064-2.2c-4.57-1.96-9.15-3.897-13.705-5.89C78.597,398.525,76.728,399.194,75.846,402.508z"/>
	<path fill="#FFFFFF" d="M70.376,408.704c5.322,2.27,10.155,4.517,15.15,6.313c1.108,0.397,2.787-0.785,4.908-1.468
		C81.989,407.178,73.47,405.114,70.376,408.704z"/>
	<path fill="#FFFFFF" d="M90.337,387.067c-1.089-0.389-2.816,1.021-5.407,2.071c6.51,2.829,11.479,5.158,16.6,7.086
		c1.198,0.452,2.909-0.458,4.384-0.742c-0.006-0.657-0.009-1.316-0.014-1.974C100.729,391.316,95.618,388.949,90.337,387.067z"/>
	<path fill="#FFFFFF" d="M91.457,382.403c6.868,2.864,12.28,7.981,19.207,7.771c0.194-0.792,0.388-1.584,0.584-2.374
		c-5.122-2.35-10.176-4.873-15.419-6.905C94.732,380.469,92.933,381.853,91.457,382.403z"/>
	<path fill="#FFFFFF" d="M81.413,395.716c16.265,7.742,16.265,7.742,18.65,4.81C92.879,394.519,83.862,392.192,81.413,395.716z"/>
	<path fill="#FFFFFF" d="M101.278,375.233c-1.307-0.439-3.045,0.408-4.585,0.671c16.814,9.923,16.814,9.923,19.885,6.652
		c-1.959-1.109-3.509-2.115-5.162-2.896C108.079,378.082,104.76,376.407,101.278,375.233z"/>
	<path fill="#FFFFFF" d="M55.583,427.183c17.99,7.377,15.725,7.615,17.542,3.286C64.934,424.795,58.437,423.455,55.583,427.183z"/>
	<path fill="#FFFFFF" d="M65.886,414.436c8.014,5.312,15.931,7.263,17.88,4.408C75.15,413.078,68.594,411.464,65.886,414.436z"/>
	<path fill="#FFFFFF" d="M61.261,420.053c14.153,7.631,14.884,7.791,17.57,4.156C72.854,422.522,67.892,417.615,61.261,420.053z"/>
	<path fill="#FFFFFF" d="M67.405,437.914c0.216-0.525,0.433-1.053,0.649-1.578c-3.576-1.482-7.152-2.966-10.73-4.449
		C60.233,434.99,62.415,439.862,67.405,437.914z"/>
	<path d="M407.822,439.989c-3.835-2.729-7.565-5.744-11.747-7.82c-6.983-3.464-12.286-8.488-17.093-14.541
		c-11.111-13.997-22.653-27.649-34.004-41.457c-3.938-4.79-7.717-9.713-11.768-14.403c-1.979-2.289-1.835-3.767,0.366-5.847
		c11.866-11.222,15.757-26.339,19.591-41.385c0.303-1.183-1.453-4.061-2.548-4.229c-5.944-0.915-11.981-1.225-18.703-1.806
		c0.041,2.727,0.086,4.842,0.101,6.954c0.064,9.391-2.138,17.996-8.502,25.246c-2.515,2.862-4.955,3.269-7.426,0.163
		c-2.505-3.147-4.966-6.34-7.247-9.648c-3.317-4.812-5.987-10.146-9.741-14.57c-3.111-3.67-6.229-7.335-9.34-11.004
		c4.088-3.273,7.99-6.879,11.682-10.853c24.091-25.937,33.467-56.731,28.119-91.646c-2.381-15.535-7.912-29.542-16.297-42.003
		c19.436-22.924,38.879-45.84,58.299-68.775c7.729-9.127,15.028-18.642,22.142-28.262c9.262-12.529,13.888-27.147,17.854-41.99
		c-0.514-0.438-1.027-0.874-1.543-1.31c-19.481,7.024-35.737,18.789-49.063,34.443c-23.223,27.275-46.421,54.572-69.626,81.863
		c-15.063-12.414-32.44-19.973-52.097-22.916c-3.586-0.536-7.189-1.195-10.784-1.195c-3.574,0-7.149,0-10.723,0
		c-3.592,0-7.193,0.659-10.775,1.193c-21.735,3.247-40.704,12.277-56.836,27.117c-24.365-28.657-48.724-57.371-73.109-86.01
		C63.676,39.646,47.42,27.855,27.938,20.831c-0.515,0.436-1.029,0.86-1.542,1.296c3.966,14.843,8.592,29.455,17.854,41.984
		c7.112,9.62,14.413,19.132,22.141,28.259c21.018,24.823,42.061,49.623,63.096,74.432c-6.369,11.035-10.682,23.184-12.96,36.417
		c-0.689,4.006-1.526,8.073-1.526,12.112c0,3.574,0,7.149,0,10.723c0,0.867,0.361,1.73,0.488,2.604
		c0.807,5.502,1.191,11.101,2.445,16.497c5.267,22.644,17.381,42.048,33.696,56.443c-4.256,5.018-8.519,10.029-12.775,15.049
		c-3.753,4.426-6.424,9.759-9.743,14.57c-2.281,3.31-4.742,6.501-7.247,9.648c-2.47,3.104-4.911,2.699-7.425-0.163
		c-6.365-7.25-8.568-15.855-8.502-25.246c0.015-2.112,0.06-4.229,0.1-6.954c-6.72,0.581-12.758,0.891-18.702,1.806
		c-1.095,0.168-2.851,3.046-2.548,4.229c3.834,15.046,7.723,30.163,19.59,41.385c2.202,2.08,2.344,3.559,0.368,5.847
		c-4.052,4.69-7.831,9.613-11.768,14.403c-11.35,13.809-22.893,27.46-34.003,41.457c-4.807,6.053-10.109,11.077-17.094,14.541
		c-4.181,2.076-7.911,5.092-11.747,7.82c-4.109,2.923-4.721,6.874-2.37,11.088c1.954,3.502,4.392,6.732,6.615,10.084
		c0.772,0.654,1.542,1.309,2.313,1.965c3.103,1.593,6.13,3.363,9.327,4.737c7.027,3.021,10.488,1.744,13.946-5.011
		c1.529-2.985,3.407-5.96,4.129-9.165c2.119-9.412,7.735-16.359,14.104-23.26c15.512-16.803,30.528-34.062,45.751-51.134
		c0.996-1.117,2.057-2.177,3.521-3.723c14.348,11.667,31.529,14.062,49.083,15.195c0.438-0.515,0.874-1.026,1.311-1.542
		c-0.156-6.457-0.313-12.916-0.48-19.812c-13.281,1.093-25.976,1.534-38.27-7.785c4.75-4.702,8.901-8.92,13.181-13.004
		c2.294-2.188,5.142-3.863,7.172-6.253c6.539-7.697,13.073-15.399,19.611-23.097c18.703,8.381,39.945,11.532,61.523,7.963
		c7.131-1.181,13.955-2.981,20.467-5.381c5.809,6.837,11.611,13.678,17.42,20.515c2.029,2.39,4.878,4.063,7.172,6.253
		c4.279,4.084,8.431,8.302,13.182,13.004c-12.295,9.319-24.99,8.878-38.271,7.785c-0.166,6.896-0.322,13.355-0.479,19.812
		c0.438,0.516,0.874,1.027,1.312,1.542c17.554-1.134,34.734-3.528,49.082-15.195c1.466,1.546,2.525,2.604,3.521,3.723
		c15.224,17.07,30.24,34.331,45.752,51.134c6.37,6.899,11.984,13.848,14.104,23.26c0.723,3.205,2.601,6.18,4.129,9.165
		c3.459,6.755,6.92,8.031,13.945,5.011c3.197-1.374,6.225-3.146,9.328-4.737c0.771-0.656,1.54-1.311,2.313-1.965
		c2.223-3.352,4.66-6.582,6.614-10.084C412.544,446.863,411.931,442.912,407.822,439.989z M293.279,314.51
		c0.812,0.958,1.461,2.059,2.188,3.097c-8.611,5.648-9.179,5.576-15.438-1.791c-0.604-0.712-1.209-1.425-1.814-2.137
		c3.141-1.875,6.184-3.929,9.133-6.151C289.325,309.854,291.302,312.182,293.279,314.51z M387.747,67.155
		c-6.42,8.459-13.069,16.764-19.937,24.865c-18.783,22.162-37.578,44.312-56.371,66.467c-2.361-3.29-4.944-6.459-7.715-9.524
		c32.547-38.31,65.094-76.618,97.642-114.929c1.189-1.401,2.382-2.802,3.574-4.204C402.438,43.925,396.144,56.09,387.747,67.155z
		 M362.836,57.826c9.996-11.737,21.605-21.723,35.682-28.481c0.851-0.407,1.737-0.73,2.606-1.093
		c0.146,0.257,0.293,0.512,0.438,0.768c-1.197,1.411-2.397,2.82-3.596,4.23c-32.121,37.811-64.241,75.623-96.362,113.435
		c-1.631-1.709-3.308-3.393-5.065-5.029c-0.935-0.868-1.879-1.712-2.832-2.542C316.744,112.013,339.775,84.906,362.836,57.826z
		 M36.832,28.251c0.87,0.362,1.757,0.687,2.606,1.093c14.077,6.758,25.685,16.744,35.681,28.481
		c24.265,28.496,48.5,57.017,72.741,85.533c-2.665,2.585-5.182,5.252-7.523,8.017C106.887,112,73.438,72.625,39.988,33.25
		c-1.197-1.41-2.397-2.82-3.595-4.23C36.539,28.764,36.686,28.508,36.832,28.251z M70.145,92.02
		c-6.867-8.101-13.516-16.406-19.936-24.865c-8.396-11.064-14.691-23.23-17.193-37.324c1.192,1.402,2.383,2.803,3.574,4.204
		c33.92,39.926,67.839,79.851,101.759,119.777c-2.61,3.27-4.997,6.663-7.173,10.171C110.83,139.997,90.48,116.014,70.145,92.02z
		 M144.676,314.51c3.092-3.641,6.185-7.281,9.276-10.922c2.811,2.344,5.735,4.542,8.763,6.587c-1.597,1.88-3.193,3.76-4.791,5.641
		c-6.258,7.367-6.825,7.439-15.438,1.791C143.215,316.567,143.863,315.468,144.676,314.51z M35.985,454.899
		c-2.669-2.491-5.576-5.493-2.676-9.522c1.542-2.145,3.605-3.993,5.691-5.648c4.033-3.199,8.247-6.172,12.506-9.326
		c1.541,2.376,2.801,4.32,4.362,6.729c-5.059,5.952-10.024,12.011-15.316,17.771C39.816,455.699,36.839,455.696,35.985,454.899z
		 M55.538,463.811c-0.67,1.32-3.907,2.412-5.502,1.969c-3.605-1.005-6.925-3.037-10.985-4.942
		c6.784-7.98,12.654-14.888,18.713-22.015c2.101,0.882,4.22,1.771,7.619,3.2C62.128,449.387,59.121,456.744,55.538,463.811z
		 M67.405,437.914c-4.99,1.948-7.172-2.924-10.081-6.027c3.578,1.483,7.154,2.967,10.73,4.449
		C67.838,436.861,67.621,437.389,67.405,437.914z M55.583,427.183c2.854-3.728,9.35-2.388,17.542,3.286
		C71.309,434.798,73.574,434.56,55.583,427.183z M61.261,420.053c6.631-2.438,11.594,2.471,17.57,4.156
		C76.145,427.844,75.414,427.684,61.261,420.053z M65.886,414.436c2.708-2.972,9.264-1.356,17.88,4.408
		C81.816,421.697,73.899,419.748,65.886,414.436z M85.526,415.019c-4.995-1.798-9.828-4.045-15.15-6.313
		c3.094-3.59,11.613-1.526,20.058,4.847C88.313,414.232,86.634,415.416,85.526,415.019z M95.101,407.865
		c-1.45,0.271-3.113,1.143-4.313,0.713c-5.02-1.796-9.901-3.982-14.942-6.07c0.881-3.312,2.75-3.981,5.614-2.731
		c4.555,1.991,9.135,3.93,13.705,5.89C95.144,406.399,95.122,407.132,95.101,407.865z M81.413,395.716
		c2.449-3.522,11.466-1.197,18.65,4.81C97.678,403.458,97.678,403.458,81.413,395.716z M101.529,396.226
		c-5.121-1.928-10.09-4.257-16.6-7.086c2.591-1.051,4.318-2.46,5.407-2.071c5.281,1.882,10.392,4.249,15.562,6.441
		c0.005,0.656,0.008,1.315,0.014,1.974C104.438,395.768,102.728,396.678,101.529,396.226z M110.664,390.175
		c-6.927,0.211-12.339-4.906-19.207-7.771c1.476-0.552,3.275-1.936,4.372-1.508c5.243,2.031,10.297,4.556,15.419,6.904
		C111.052,388.591,110.858,389.383,110.664,390.175z M96.692,375.904c1.54-0.263,3.279-1.11,4.585-0.671
		c3.482,1.174,6.801,2.849,10.138,4.428c1.653,0.78,3.203,1.786,5.162,2.896C113.506,385.827,113.506,385.827,96.692,375.904z
		 M116.665,378.395c-4.883-2.546-9.955-4.73-15.388-7.274c3.427-3.533,10.09-1.594,20.489,5.186
		C120.917,379.092,119.564,379.907,116.665,378.395z M118.793,370.391c-4.017-1.61-7.897-3.562-12.179-5.527
		c4.163-6.491,4.866-6.754,10.75-3.677c1.759,0.92,3.715,1.976,4.817,3.517c1.62,2.263,2.553,5.016,3.779,7.56
		C123.563,371.656,121.065,371.304,118.793,370.391z M174.415,372.927c-0.025,4.687-0.052,9.335-0.082,14.989
		c-5.224-1.415-10.139-2.329-14.734-4.084c-7.674-2.93-15.41-5.906-22.592-9.829c-4.052-2.211-7.002-6.402-10.534-9.61
		c-3.072-2.787-5.849-6.543-9.492-7.925c-6.472-2.453-10.447-7.05-14.184-12.28c-6.677-9.346-11.84-19.413-15.269-30.912
		c5.36-0.227,10.172-0.429,14.985-0.631c2.231,26.525,8.947,35.886,27.135,37.573C133.512,368.32,150.97,374.805,174.415,372.927z
		 M136.454,359.167c-1.265-3.473-2.75-7.556-4.395-12.072c-2.845-0.279-6.241-0.61-9.39-0.921
		c5.707-8.795,11.177-17.229,16.438-25.341c10.285,1.574,15.98,7.963,20.35,16.991C152.048,344.699,144.531,351.673,136.454,359.167
		z M165.862,330.065c-1.184,1.396-2.372,2.791-3.762,4.426c-1.062-1.152-1.88-1.939-2.578-2.816
		c-5.296-6.677-5.29-6.748,0.09-13.081c1.901-2.237,3.803-4.477,5.704-6.714c3.496,2.218,7.119,4.235,10.851,6.043
		C172.731,321.971,169.297,326.018,165.862,330.065z M220.612,324.096c-55.427-1.25-101.389-47.496-100.858-103.533
		c-0.506-56.521,47.169-104.608,105.795-103.292c55.416,1.247,102.182,47.919,100.949,105.776
		C325.316,278.505,278.658,325.406,220.612,324.096z M278.434,331.675c-0.697,0.877-1.516,1.664-2.578,2.816
		c-1.39-1.635-2.578-3.029-3.762-4.426c-2.658-3.133-5.314-6.265-7.974-9.396c3.912-1.582,7.704-3.393,11.372-5.433
		c0.951,1.119,1.9,2.236,2.852,3.355C283.725,324.927,283.729,324.998,278.434,331.675z M278.496,337.824
		c4.37-9.028,10.064-15.417,20.352-16.991c5.262,8.111,10.73,16.546,16.438,25.341c-3.147,0.311-6.546,0.642-9.39,0.921
		c-1.646,4.518-3.131,8.601-4.396,12.072C293.424,351.673,285.907,344.699,278.496,337.824z M300.948,374.003
		c-7.183,3.923-14.919,6.899-22.593,9.829c-4.595,1.755-9.508,2.669-14.732,4.084c-0.031-5.654-0.057-10.304-0.083-14.989
		c23.444,1.878,40.903-4.605,44.767-22.709c18.189-1.688,24.905-11.048,27.135-37.573c4.814,0.202,9.627,0.404,14.986,0.631
		c-3.429,11.499-8.593,21.566-15.269,30.912c-3.737,5.23-7.712,9.827-14.185,12.28c-3.646,1.382-6.422,5.138-9.492,7.925
		C307.95,367.601,305,371.792,300.948,374.003z M311.996,372.262c1.227-2.544,2.158-5.297,3.777-7.56
		c1.104-1.541,3.061-2.597,4.818-3.517c5.883-3.077,6.586-2.814,10.749,3.677c-4.28,1.966-8.161,3.917-12.18,5.527
		C316.891,371.304,314.393,371.656,311.996,372.262z M316.189,376.305c10.399-6.778,17.062-8.719,20.49-5.186
		c-5.436,2.544-10.506,4.729-15.39,7.274C318.391,379.907,317.039,379.092,316.189,376.305z M321.378,382.558
		c1.96-1.109,3.509-2.115,5.163-2.896c3.335-1.579,6.654-3.254,10.139-4.428c1.305-0.439,3.045,0.408,4.584,0.671
		C324.449,385.827,324.449,385.827,321.378,382.558z M326.708,387.801c5.121-2.35,10.176-4.873,15.418-6.904
		c1.099-0.428,2.896,0.956,4.373,1.508c-6.867,2.864-12.281,7.981-19.207,7.771C327.098,389.383,326.904,388.591,326.708,387.801z
		 M332.043,395.482c0.006-0.657,0.009-1.316,0.014-1.974c5.172-2.192,10.281-4.561,15.562-6.441
		c1.088-0.389,2.816,1.021,5.406,2.071c-6.51,2.829-11.479,5.158-16.601,7.086C335.229,396.678,333.518,395.768,332.043,395.482z
		 M337.893,400.524c7.186-6.007,16.201-8.332,18.65-4.81C340.277,403.458,340.277,403.458,337.893,400.524z M342.854,407.865
		c-0.021-0.733-0.041-1.466-0.062-2.2c4.57-1.96,9.148-3.897,13.705-5.89c2.863-1.25,4.73-0.581,5.613,2.731
		c-5.041,2.088-9.922,4.274-14.941,6.07C345.968,409.008,344.305,408.137,342.854,407.865z M347.521,413.551
		c8.445-6.373,16.965-8.437,20.058-4.847c-5.321,2.27-10.154,4.517-15.149,6.313C351.32,415.416,349.643,414.232,347.521,413.551z
		 M354.189,418.844c8.615-5.766,15.172-7.38,17.881-4.408C364.057,419.748,356.141,421.697,354.189,418.844z M359.124,424.209
		c5.978-1.687,10.94-6.594,17.571-4.156C362.541,427.684,361.811,427.844,359.124,424.209z M364.831,430.469
		c8.19-5.674,14.688-7.014,17.541-3.286C364.382,434.56,366.646,434.798,364.831,430.469z M369.902,436.336
		c3.574-1.482,7.152-2.966,10.729-4.449c-2.908,3.104-5.091,7.977-10.081,6.027C370.334,437.389,370.118,436.861,369.902,436.336z
		 M387.92,465.778c-1.596,0.443-4.832-0.647-5.502-1.969c-3.583-7.065-6.59-14.424-9.846-21.788c3.398-1.429,5.518-2.318,7.619-3.2
		c6.059,7.127,11.928,14.032,18.713,22.015C394.846,462.741,391.523,464.773,387.92,465.778z M401.97,454.899
		c-0.854,0.797-3.831,0.8-4.564,0.001c-5.294-5.761-10.259-11.818-15.317-17.771c1.561-2.407,2.821-4.353,4.361-6.729
		c4.26,3.154,8.473,6.127,12.507,9.326c2.085,1.655,4.147,3.505,5.691,5.648C407.546,449.406,404.641,452.408,401.97,454.899z"/>
	<path fill="#FFFFFF" d="M278.344,318.594c-0.949-1.119-1.9-2.236-2.852-3.355c-3.668,2.04-7.46,3.851-11.372,5.433
		c2.657,3.132,5.315,6.264,7.974,9.396c1.184,1.396,2.372,2.791,3.762,4.426c1.062-1.152,1.881-1.939,2.578-2.816
		C283.729,324.998,283.725,324.927,278.344,318.594z"/>
	<path fill="#FFFFFF" d="M36.59,34.034c-1.191-1.401-2.382-2.802-3.574-4.204c2.502,14.094,8.796,26.26,17.193,37.324
		c6.42,8.459,13.069,16.764,19.936,24.865c20.336,23.995,40.686,47.977,61.031,71.963c2.176-3.508,4.563-6.901,7.173-10.171
		C104.429,113.885,70.51,73.96,36.59,34.034z"/>
	<path fill="#FFFFFF" d="M280.029,315.814c6.26,7.367,6.826,7.439,15.438,1.791c-0.729-1.038-1.375-2.139-2.188-3.097
		c-1.979-2.328-3.954-4.655-5.932-6.982c-2.949,2.224-5.992,4.276-9.134,6.151C278.82,314.391,279.425,315.103,280.029,315.814z"/>
	<path fill="#FFFFFF" d="M140.337,151.375c2.341-2.764,4.858-5.432,7.523-8.017c-24.241-28.516-48.476-57.037-72.741-85.533
		c-9.996-11.737-21.604-21.723-35.681-28.481c-0.849-0.407-1.737-0.731-2.606-1.093c-0.146,0.257-0.293,0.512-0.438,0.768
		c1.198,1.411,2.398,2.82,3.595,4.23C73.438,72.625,106.887,112,140.337,151.375z"/>
	<path fill="#FFFFFF" d="M320.975,356.468c6.474-2.453,10.447-7.05,14.186-12.281c6.676-9.345,11.84-19.412,15.27-30.911
		c-5.359-0.227-10.173-0.429-14.986-0.631c-2.229,26.525-8.945,35.886-27.135,37.573c-3.863,18.104-21.322,24.587-44.768,22.709
		c0.025,4.687,0.052,9.335,0.083,14.989c5.226-1.415,10.14-2.329,14.733-4.084c7.674-2.93,15.41-5.906,22.592-9.829
		c4.052-2.211,7.002-6.402,10.533-9.61C314.555,361.604,317.33,357.85,320.975,356.468z"/>
	<path fill="#FFFFFF" d="M305.896,347.095c2.844-0.279,6.24-0.61,9.39-0.921c-5.708-8.795-11.179-17.229-16.438-25.341
		c-10.285,1.574-15.98,7.963-20.352,16.991c7.411,6.875,14.928,13.849,23.005,21.343
		C302.768,355.694,304.252,351.611,305.896,347.095z"/>
	<path fill="#FFFFFF" d="M372.572,442.021c3.256,7.364,6.263,14.723,9.846,21.788c0.67,1.32,3.906,2.412,5.502,1.969
		c3.604-1.005,6.926-3.037,10.984-4.942c-6.785-7.98-12.654-14.888-18.713-22.015C378.09,439.703,375.973,440.594,372.572,442.021z"
		/>
	<path fill="#FFFFFF" d="M398.955,439.729c-4.034-3.199-8.247-6.172-12.507-9.326c-1.54,2.376-2.802,4.32-4.361,6.729
		c5.06,5.952,10.022,12.011,15.317,17.771c0.733,0.799,3.712,0.796,4.564-0.001c2.671-2.491,5.576-5.493,2.678-9.522
		C403.104,443.232,401.04,441.384,398.955,439.729z"/>
	<path fill="#FFFFFF" d="M331.342,364.862c-4.162-6.491-4.865-6.754-10.749-3.677c-1.759,0.92-3.716,1.976-4.817,3.517
		c-1.619,2.263-2.553,5.016-3.778,7.56c2.396-0.604,4.894-0.958,7.166-1.871C323.182,368.779,327.061,366.828,331.342,364.862z"/>
	<path fill="#FFFFFF" d="M316.189,376.305c0.85,2.787,2.201,3.604,5.102,2.09c4.884-2.546,9.954-4.73,15.389-7.274
		C333.252,367.586,326.59,369.525,316.189,376.305z"/>
	<path fill="#FFFFFF" d="M356.496,399.775c-4.557,1.991-9.135,3.93-13.705,5.89c0.021,0.734,0.043,1.467,0.062,2.2
		c1.449,0.271,3.113,1.143,4.313,0.713c5.021-1.796,9.899-3.982,14.94-6.07C361.229,399.194,359.359,398.525,356.496,399.775z"/>
	<path fill="#FFFFFF" d="M347.521,413.551c2.121,0.683,3.799,1.865,4.908,1.468c4.994-1.798,9.827-4.045,15.148-6.313
		C364.486,405.114,355.968,407.178,347.521,413.551z"/>
	<path fill="#FFFFFF" d="M347.619,387.067c-5.281,1.882-10.393,4.249-15.562,6.441c-0.005,0.656-0.008,1.315-0.014,1.974
		c1.475,0.284,3.186,1.194,4.383,0.742c5.121-1.928,10.092-4.257,16.6-7.086C350.436,388.089,348.707,386.68,347.619,387.067z"/>
	<path fill="#FFFFFF" d="M342.126,380.896c-5.242,2.031-10.297,4.556-15.418,6.904c0.196,0.79,0.39,1.582,0.584,2.374
		c6.926,0.211,12.34-4.906,19.207-7.771C345.021,381.853,343.225,380.469,342.126,380.896z"/>
	<path fill="#FFFFFF" d="M337.893,400.524c2.387,2.934,2.387,2.934,18.65-4.81C354.094,392.192,345.077,394.519,337.893,400.524z"/>
	<path fill="#FFFFFF" d="M336.68,375.233c-3.482,1.174-6.804,2.849-10.139,4.428c-1.654,0.78-3.203,1.786-5.163,2.896
		c3.071,3.271,3.071,3.271,19.886-6.652C339.725,375.643,337.984,374.794,336.68,375.233z"/>
	<path fill="#FFFFFF" d="M364.831,430.469c1.815,4.329-0.449,4.091,17.541-3.286C379.52,423.455,373.021,424.795,364.831,430.469z"
		/>
	<path fill="#FFFFFF" d="M354.189,418.844c1.949,2.854,9.867,0.904,17.881-4.408C369.361,411.464,362.807,413.078,354.189,418.844z"
		/>
	<path fill="#FFFFFF" d="M359.124,424.209c2.687,3.635,3.417,3.475,17.571-4.156C370.064,417.615,365.102,422.522,359.124,424.209z"
		/>
	<path fill="#FFFFFF" d="M380.632,431.887c-3.577,1.483-7.155,2.967-10.729,4.449c0.217,0.525,0.433,1.053,0.648,1.578
		C375.541,439.862,377.723,434.99,380.632,431.887z"/>
	<path fill="#FFFFFF" d="M326.498,223.047c1.232-57.857-45.533-104.53-100.949-105.776
		c-58.626-1.316-106.301,46.771-105.795,103.292c-0.531,56.037,45.431,102.283,100.858,103.533
		C278.658,325.406,325.316,278.505,326.498,223.047z M217.738,274.604c-4.134-0.015-6.366-2.086-6.551-6.219
		c-0.098-2.229-0.076-4.468-0.003-6.697c0.051-1.654-0.706-2.595-2.165-3.244c-4.79-2.135-4.779-2.158-8.538,1.603
		c-1.054,1.054-2.069,2.147-3.177,3.138c-2.452,2.188-5.679,2.195-8.051-0.076c-2.903-2.776-5.746-5.625-8.528-8.522
		c-2.412-2.514-2.416-5.639-0.053-8.188c1.618-1.745,3.333-3.403,5.042-5.061c1.152-1.118,1.496-2.33,0.771-3.815
		c-0.389-0.802-0.747-1.625-1.025-2.469c-0.629-1.912-1.996-2.661-3.914-2.651c-2.157,0.009-4.317,0.023-6.477-0.017
		c-3.762-0.072-5.875-2.21-5.915-6.022c-0.036-3.647-0.023-7.294-0.003-10.942c0.021-4.25,2.148-6.479,6.387-6.627
		c2.232-0.08,4.492,0.176,6.689-0.105c1.054-0.135,1.996-1.16,2.985-1.792c0.051-0.031,0.047-0.138,0.08-0.204
		c2.232-4.81,2.232-4.81-1.527-8.569c-1.055-1.052-2.145-2.07-3.141-3.174c-2.261-2.504-2.316-5.6-0.007-8.027
		c2.821-2.966,5.72-5.86,8.681-8.685c2.367-2.255,5.624-2.221,8.045,0.011c1.697,1.56,3.31,3.217,4.904,4.884
		c1.218,1.274,2.469,1.632,4.185,0.903c5.526-2.352,4.661-1.923,4.742-7.115c0.029-1.852,0.005-3.731,0.304-5.551
		c0.447-2.752,2.472-4.509,5.242-4.573c4.241-0.098,8.487-0.116,12.727,0.007c3.345,0.095,5.404,2.527,5.541,6.316
		c0.076,2.158,0.085,4.321-0.004,6.475c-0.073,1.758,0.736,2.723,2.281,3.397c4.705,2.054,4.69,2.083,8.356-1.585
		c1.053-1.053,2.074-2.141,3.174-3.141c2.452-2.229,5.677-2.309,8.045-0.055c2.968,2.817,5.868,5.713,8.683,8.685
		c2.392,2.523,2.309,5.597-0.111,8.187c-1.625,1.738-3.341,3.394-5.042,5.061c-1.083,1.06-1.416,2.23-0.722,3.625
		c0.033,0.065,0.053,0.138,0.08,0.207c2.32,5.642,1.973,4.724,7.064,4.81c1.926,0.033,3.883,0.007,5.768,0.338
		c2.731,0.48,4.379,2.567,4.42,5.362c0.058,4.17,0.074,8.337-0.006,12.505c-0.061,3.129-2.235,5.261-5.391,5.375
		c-2.305,0.084-4.615,0.053-6.922,0.029c-2.025-0.021-3.407,0.791-4.027,2.8c-0.262,0.849-0.633,1.666-1.004,2.476
		c-0.648,1.416-0.298,2.57,0.782,3.62c1.653,1.611,3.308,3.223,4.894,4.899c2.592,2.74,2.621,5.815,0.021,8.516
		c-2.684,2.788-5.425,5.523-8.209,8.212c-2.637,2.543-5.878,2.521-8.539,0.002c-1.458-1.381-2.918-2.772-4.254-4.271
		c-1.477-1.656-3.037-2.315-5.082-1.057c-0.438,0.27-0.952,0.418-1.445,0.578c-2.027,0.657-2.949,1.919-2.841,4.166
		c0.122,2.514,0.082,5.071-0.253,7.562c-0.4,2.981-2.557,4.641-5.58,4.697c-2.011,0.043-4.021,0.01-6.029,0.01
		C221.31,274.604,219.523,274.609,217.738,274.604z"/>
	<path d="M229.126,274.596c3.024-0.059,5.179-1.717,5.58-4.699c0.335-2.489,0.375-5.047,0.253-7.562
		c-0.109-2.247,0.812-3.509,2.841-4.166c0.493-0.16,1.009-0.31,1.445-0.578c2.045-1.26,3.606-0.601,5.082,1.056
		c1.336,1.498,2.796,2.892,4.254,4.271c2.661,2.518,5.903,2.541,8.539-0.002c2.784-2.688,5.524-5.424,8.209-8.212
		c2.599-2.699,2.569-5.774-0.022-8.517c-1.584-1.677-3.238-3.288-4.893-4.898c-1.08-1.05-1.432-2.204-0.782-3.62
		c0.371-0.81,0.742-1.627,1.005-2.476c0.619-2.009,2-2.821,4.026-2.8c2.308,0.023,4.617,0.055,6.922-0.029
		c3.154-0.114,5.33-2.246,5.39-5.375c0.08-4.168,0.063-8.335,0.006-12.505c-0.039-2.795-1.688-4.882-4.418-5.362
		c-1.885-0.331-3.844-0.305-5.769-0.338c-5.093-0.085-4.744,0.833-7.065-4.81c-0.026-0.069-0.047-0.142-0.08-0.207
		c-0.693-1.395-0.36-2.565,0.723-3.625c1.701-1.667,3.417-3.323,5.042-5.061c2.42-2.59,2.503-5.664,0.11-8.187
		c-2.812-2.972-5.715-5.868-8.682-8.685c-2.367-2.254-5.593-2.174-8.045,0.055c-1.1,1-2.121,2.088-3.174,3.141
		c-3.666,3.668-3.65,3.639-8.357,1.585c-1.545-0.674-2.354-1.64-2.281-3.397c0.09-2.154,0.08-4.317,0.005-6.475
		c-0.138-3.79-2.196-6.222-5.541-6.316c-4.24-0.124-8.486-0.105-12.727-0.007c-2.77,0.064-4.795,1.821-5.242,4.573
		c-0.298,1.82-0.274,3.699-0.304,5.551c-0.082,5.191,0.784,4.763-4.742,7.115c-1.716,0.729-2.967,0.371-4.185-0.903
		c-1.594-1.667-3.207-3.325-4.904-4.884c-2.421-2.232-5.679-2.267-8.045-0.011c-2.961,2.825-5.86,5.719-8.681,8.685
		c-2.309,2.427-2.254,5.522,0.007,8.027c0.996,1.104,2.086,2.122,3.141,3.174c3.759,3.759,3.759,3.759,1.527,8.569
		c-0.033,0.065-0.029,0.172-0.08,0.204c-0.989,0.632-1.931,1.657-2.985,1.792c-2.197,0.282-4.457,0.025-6.689,0.105
		c-4.239,0.149-6.366,2.377-6.387,6.627c-0.02,3.648-0.033,7.294,0.003,10.942c0.04,3.812,2.152,5.95,5.915,6.022
		c2.16,0.04,4.319,0.025,6.477,0.017c1.918-0.01,3.285,0.739,3.914,2.651c0.278,0.844,0.636,1.667,1.025,2.469
		c0.725,1.485,0.381,2.697-0.771,3.815c-1.708,1.656-3.424,3.315-5.042,5.062c-2.363,2.549-2.359,5.674,0.053,8.188
		c2.783,2.896,5.625,5.746,8.528,8.523c2.372,2.271,5.599,2.263,8.051,0.076c1.108-0.99,2.123-2.086,3.177-3.139
		c3.759-3.761,3.748-3.736,8.538-1.604c1.459,0.65,2.216,1.59,2.165,3.244c-0.073,2.23-0.095,4.471,0.003,6.698
		c0.186,4.132,2.417,6.204,6.551,6.22c1.785,0.004,3.571,0,5.359,0C225.105,274.604,227.115,274.637,229.126,274.596z
		 M215.81,267.857c0.067-2.229,0.073-4.467-0.007-6.697c-0.111-3.092-1.5-5.46-4.437-6.614c-2.12-0.831-4.333-1.882-6.522-1.923
		c-1.789-0.035-3.812,0.982-5.354,2.07c-1.857,1.311-3.337,3.166-4.944,4.824c-0.854,0.881-1.571,0.889-2.441-0.002
		c-2.548-2.608-5.129-5.188-7.729-7.746c-0.951-0.938-0.907-1.75,0.02-2.656c1.598-1.562,3.153-3.163,4.737-4.739
		c2.379-2.37,2.728-5.166,1.67-8.218c-0.438-1.262-0.973-2.494-1.529-3.708c-1.331-2.917-3.603-4.455-6.831-4.489
		c-2.232-0.024-4.468-0.061-6.7,0.011c-1.427,0.045-2.098-0.584-2.105-1.945c-0.018-3.573-0.015-7.146,0.005-10.719
		c0.009-1.405,0.771-1.931,2.156-1.889c2.23,0.067,4.466,0.06,6.698,0c3.194-0.085,5.593-1.521,6.78-4.541
		c0.807-2.052,1.567-4.163,1.974-6.316c0.411-2.174-0.574-4.05-2.159-5.597c-1.547-1.507-3.025-3.081-4.583-4.575
		c-0.991-0.953-1.15-1.785-0.093-2.817c2.606-2.548,5.181-5.135,7.729-7.744c0.889-0.909,1.585-0.818,2.425,0.06
		c1.596,1.667,3.221,3.308,4.897,4.895c2.399,2.269,5.215,2.658,8.263,1.578c1.188-0.42,2.352-0.925,3.504-1.436
		c2.939-1.302,4.497-3.57,4.575-6.788c0.053-2.232,0.078-4.468-0.004-6.698c-0.056-1.541,0.622-2.207,2.085-2.208
		c3.497-0.004,6.994-0.009,10.493,0.011c1.343,0.007,2.023,0.629,1.979,2.076c-0.071,2.232-0.053,4.468-0.004,6.7
		c0.07,3.29,1.562,5.666,4.654,6.947c1.234,0.512,2.453,1.08,3.721,1.498c2.895,0.949,5.589,0.607,7.857-1.567
		c1.723-1.647,3.312-3.434,5.108-4.991c0.448-0.389,1.771-0.478,2.149-0.125c2.777,2.585,5.426,5.31,8.09,8.012
		c0.295,0.298,0.442,0.742,0.729,1.238c-0.367,0.484-0.671,0.983-1.068,1.393c-1.451,1.496-2.916,2.981-4.408,4.435
		c-2.617,2.548-2.942,5.519-1.67,8.791c0.402,1.04,0.838,2.066,1.278,3.09c1.312,3.041,3.627,4.628,6.94,4.686
		c2.232,0.038,4.468,0.04,6.699,0.004c1.252-0.02,1.957,0.36,1.938,1.774c-0.048,3.646-0.049,7.294,0,10.94
		c0.021,1.38-0.603,1.842-1.894,1.819c-2.307-0.038-4.615-0.058-6.922,0.01c-3.099,0.091-5.449,1.469-6.613,4.411
		c-0.812,2.053-1.608,4.15-2.028,6.304c-0.44,2.252,0.556,4.197,2.216,5.797c1.555,1.498,3.024,3.082,4.584,4.572
		c1.041,0.997,0.979,1.838-0.027,2.822c-2.551,2.499-5.084,5.021-7.567,7.589c-0.96,0.992-1.703,0.897-2.606-0.05
		c-1.539-1.615-3.133-3.186-4.732-4.738c-2.381-2.311-5.188-2.732-8.244-1.693c-1.334,0.453-2.63,1.031-3.906,1.629
		c-2.752,1.289-4.171,3.51-4.268,6.523c-0.072,2.231-0.069,4.467-0.008,6.697c0.041,1.462-0.383,2.201-2.015,2.163
		c-3.497-0.084-6.998-0.084-10.495,0C216.244,270.034,215.764,269.346,215.81,267.857z"/>
	<path fill="#FFFFFF" d="M217.851,269.996c3.498-0.084,6.999-0.084,10.495,0c1.631,0.038,2.055-0.701,2.016-2.163
		c-0.062-2.229-0.065-4.466,0.007-6.698c0.097-3.014,1.516-5.234,4.268-6.523c1.276-0.598,2.572-1.176,3.906-1.629
		c3.056-1.037,5.864-0.615,8.244,1.694c1.601,1.554,3.192,3.123,4.731,4.738c0.904,0.946,1.647,1.042,2.607,0.05
		c2.484-2.566,5.018-5.09,7.568-7.589c1.007-0.985,1.067-1.825,0.027-2.823c-1.561-1.49-3.031-3.072-4.585-4.571
		c-1.659-1.6-2.655-3.545-2.216-5.797c0.42-2.153,1.216-4.251,2.028-6.304c1.165-2.942,3.516-4.32,6.614-4.411
		c2.306-0.067,4.614-0.048,6.922-0.01c1.291,0.022,1.912-0.439,1.893-1.819c-0.049-3.646-0.048-7.294,0-10.94
		c0.02-1.414-0.686-1.794-1.938-1.774c-2.232,0.036-4.467,0.034-6.7-0.004c-3.313-0.058-5.628-1.645-6.94-4.686
		c-0.441-1.023-0.876-2.05-1.279-3.09c-1.271-3.272-0.946-6.242,1.672-8.791c1.492-1.454,2.957-2.939,4.406-4.435
		c0.398-0.409,0.702-0.909,1.069-1.393c-0.285-0.496-0.433-0.939-0.728-1.238c-2.666-2.703-5.312-5.427-8.092-8.012
		c-0.379-0.353-1.701-0.264-2.148,0.125c-1.795,1.558-3.387,3.344-5.108,4.991c-2.271,2.174-4.964,2.516-7.856,1.567
		c-1.269-0.418-2.486-0.985-3.721-1.498c-3.093-1.282-4.586-3.657-4.656-6.947c-0.049-2.232-0.066-4.468,0.004-6.7
		c0.046-1.447-0.637-2.068-1.979-2.076c-3.499-0.021-6.996-0.015-10.493-0.011c-1.463,0.001-2.141,0.667-2.085,2.208
		c0.082,2.23,0.057,4.466,0.004,6.698c-0.078,3.217-1.636,5.486-4.575,6.788c-1.152,0.511-2.316,1.016-3.504,1.436
		c-3.048,1.08-5.864,0.69-8.263-1.578c-1.676-1.587-3.301-3.228-4.897-4.895c-0.84-0.878-1.536-0.969-2.425-0.06
		c-2.548,2.608-5.123,5.195-7.729,7.744c-1.058,1.032-0.898,1.865,0.093,2.817c1.558,1.494,3.036,3.068,4.583,4.575
		c1.585,1.547,2.57,3.422,2.159,5.597c-0.407,2.154-1.167,4.264-1.974,6.316c-1.187,3.019-3.586,4.455-6.78,4.541
		c-2.232,0.06-4.468,0.067-6.698,0c-1.385-0.042-2.146,0.483-2.156,1.889c-0.02,3.573-0.023,7.146-0.005,10.719
		c0.007,1.361,0.678,1.99,2.105,1.945c2.232-0.071,4.468-0.035,6.7-0.011c3.228,0.034,5.5,1.572,6.831,4.489
		c0.556,1.214,1.091,2.446,1.529,3.708c1.058,3.052,0.709,5.848-1.67,8.218c-1.583,1.576-3.139,3.179-4.737,4.738
		c-0.927,0.906-0.971,1.72-0.02,2.658c2.599,2.558,5.18,5.137,7.729,7.744c0.871,0.891,1.587,0.883,2.441,0.002
		c1.607-1.658,3.086-3.514,4.944-4.824c1.543-1.086,3.566-2.104,5.354-2.069c2.188,0.041,4.402,1.092,6.522,1.923
		c2.938,1.154,4.326,3.521,4.437,6.614c0.08,2.229,0.075,4.468,0.007,6.698C215.764,269.346,216.244,270.034,217.851,269.996z
		 M204.467,220.797c-0.122-10.059,8.416-18.669,18.564-18.724c10.088-0.053,18.666,8.498,18.671,18.615
		c0.008,10.098-8.608,18.689-18.675,18.622C212.965,239.244,204.589,230.887,204.467,220.797z"/>
	<path d="M223.027,239.31c10.065,0.067,18.683-8.524,18.675-18.622c-0.005-10.117-8.583-18.667-18.671-18.615
		c-10.148,0.055-18.687,8.665-18.564,18.724C204.589,230.887,212.965,239.244,223.027,239.31z M223.256,206.704
		c7.605,0.045,13.817,6.333,13.814,13.989c0,7.743-6.287,14.003-14.047,13.985c-7.727-0.017-13.959-6.329-13.924-14.107
		C209.133,212.859,215.462,206.661,223.256,206.704z"/>
	<path fill="#FFFFFF" d="M223.023,234.679c7.76,0.018,14.047-6.242,14.047-13.985c0.003-7.656-6.209-13.944-13.814-13.989
		c-7.794-0.043-14.123,6.155-14.158,13.867C209.064,228.35,215.297,234.662,223.023,234.679z"/>
	<path fill="#FFFFFF" stroke="#000000" stroke-width="4" stroke-miterlimit="10" d="M81.545,209.601
		c3.484-2.737,6.845-5.352,10.084-7.844c3.236-2.489,5.912-4.604,8.03-6.349c1.616-1.99,2.428-4.044,2.428-6.163
		c0-1.99-0.686-3.67-2.055-5.042c-1.371-1.369-3.113-2.054-5.229-2.054c-1.121,0-2.492,0.312-4.109,0.934
		c-0.499,0.374-1.867,1.465-4.108,3.268c-2.241,1.806-4.919,3.893-8.03,6.256c-3.114,2.366-6.382,4.919-9.805,7.657
		c-3.425,2.74-6.693,5.293-9.804,7.656c-3.113,2.367-5.76,4.421-7.937,6.163c-2.18,1.745-3.581,2.865-4.202,3.361
		c-2.366,1.867-3.548,4.047-3.548,6.536c0,2.118,0.995,4.173,2.988,6.162c3.236,2.242,6.784,4.826,10.645,7.75
		c3.857,2.928,7.779,5.883,11.765,8.872c3.983,2.987,7.905,5.914,11.765,8.776c3.857,2.864,7.345,5.416,10.458,7.655
		c1.742,0.748,3.297,1.121,4.668,1.121c2.116,0,3.858-0.653,5.229-1.961c1.369-1.308,2.054-2.955,2.054-4.948
		c0-1.99-0.686-3.923-2.054-5.789c-2.492-1.867-5.386-4.017-8.684-6.443c-3.3-2.428-6.629-4.916-9.991-7.469
		c-3.361-2.551-6.693-5.043-9.991-7.471c-3.3-2.428-6.195-4.575-8.684-6.442c2.116-1.742,4.792-3.858,8.03-6.35
		C74.697,214.955,78.059,212.341,81.545,209.601z"/>
	<path fill="#FFFFFF" stroke="#000000" stroke-width="4" stroke-miterlimit="10" d="M364.973,237.707
		c-3.361,2.553-6.69,5.041-9.99,7.469c-3.299,2.428-6.192,4.576-8.685,6.443c-1.368,1.867-2.054,3.799-2.054,5.789
		c0,1.992,0.686,3.642,2.054,4.949c1.371,1.307,3.113,1.961,5.229,1.961c1.371,0,2.926-0.375,4.668-1.121
		c3.113-2.24,6.601-4.791,10.457-7.656c3.861-2.861,7.783-5.789,11.766-8.777c3.986-2.988,7.908-5.943,11.766-8.871
		c3.86-2.924,7.408-5.508,10.646-7.75c1.993-1.989,2.988-4.044,2.988-6.162c0-2.489-1.183-4.669-3.55-6.536
		c-0.62-0.496-2.021-1.617-4.2-3.361c-2.179-1.742-4.824-3.796-7.938-6.163c-3.109-2.363-6.379-4.917-9.804-7.656
		c-3.423-2.737-6.69-5.291-9.806-7.657c-3.109-2.364-5.789-4.45-8.029-6.256c-2.24-1.803-3.609-2.895-4.107-3.268
		c-1.617-0.622-2.988-0.934-4.109-0.934c-2.114,0-3.856,0.686-5.229,2.054c-1.369,1.372-2.055,3.052-2.055,5.042
		c0,2.119,0.812,4.173,2.428,6.163c2.119,1.745,4.795,3.86,8.03,6.349c3.239,2.492,6.601,5.106,10.085,7.844
		c3.486,2.74,6.848,5.354,10.084,7.843c3.238,2.492,5.914,4.607,8.029,6.35c-2.488,1.867-5.383,4.015-8.685,6.442
		C371.666,232.664,368.334,235.156,364.973,237.707z"/>
</g>
</svg>
